<svg width="41" height="28" viewBox="0 0 41 28" fill="none" xmlns="http://www.w3.org/2000/svg">
<path d="M16.1551 5.73002C16.1551 2.92414 18.4508 0.628418 21.2567 0.628418C22.192 0.628418 23.0423 0.883501 23.8075 1.30863L38.092 9.64125C40.5578 11.0867 41.323 14.1477 39.9626 16.6134C39.5374 17.3787 38.8572 18.0589 38.092 18.484L23.8925 26.7316C21.4268 28.1771 18.3658 27.3268 16.9203 24.861C16.4952 24.0958 16.2401 23.2455 16.2401 22.3102L16.1551 5.73002Z" fill="url(#paint0_linear_13_2)"/>
<path d="M0 5.73002C0 2.92414 2.29572 0.628418 5.1016 0.628418C6.0369 0.628418 6.88717 0.883501 7.65241 1.30863L21.9369 9.64125C24.4027 11.0867 25.1679 14.1477 23.8075 16.6134C23.3824 17.3787 22.7021 18.0589 21.9369 18.484L7.73744 26.7316C5.27166 28.1771 2.21069 27.3268 0.765235 24.861C0.340102 24.0958 0.0850319 23.2455 0.0850319 22.3102L0 5.73002Z" fill="url(#paint1_linear_13_2)"/>
<defs>
<linearGradient id="paint0_linear_13_2" x1="18.7809" y1="1.3387" x2="31.0703" y2="22.6246" gradientUnits="userSpaceOnUse">
<stop stop-color="#FF589B"/>
<stop offset="1" stop-color="#FF136F"/>
</linearGradient>
<linearGradient id="paint1_linear_13_2" x1="2.62579" y1="1.3387" x2="14.9152" y2="22.6246" gradientUnits="userSpaceOnUse">
<stop stop-color="#FF9C35"/>
<stop offset="1" stop-color="#FFD019"/>
</linearGradient>
</defs>
</svg>
